<?xml version="1.0" encoding="utf-8"?>
<!-- Generator: Adobe Illustrator 24.0.1, SVG Export Plug-In . SVG Version: 6.00 Build 0)  -->
<svg version="1.1" id="Camada_1" xmlns="http://www.w3.org/2000/svg" xmlns:xlink="http://www.w3.org/1999/xlink" x="0px" y="0px"
	 viewBox="0 0 1366 500" style="enable-background:new 0 0 1366 500;" xml:space="preserve">
<style type="text/css">
	.st0{fill:#191919;}
	.st1{fill:#FE0101;}
	.st2{fill:#00FEFE;}
	.st3{fill:#FE0000;}
	.st4{fill:#01FEFE;}
	.st5{fill:#01FDFD;}
	.st6{fill:#00FDFD;}
	.st7{fill:#FD0101;}
	.st8{fill:#FC0303;}
	.st9{fill:#FB0505;}
	.st10{fill:#01FAFA;}
	.st11{fill:#FC0101;}
	.st12{fill:#FA0909;}
	.st13{fill:#F80606;}
	.st14{fill:#FB0404;}
	.st15{fill:#F70707;}
	.st16{fill:#FE0707;}
	.st17{fill:#F90505;}
	.st18{fill:#16F6F6;}
	.st19{fill:#CE1919;}
	.st20{fill:#E52323;}
	.st21{fill:#AC4848;}
	.st22{fill:#FB0202;}
	.st23{fill:#CF2F2F;}
	.st24{fill:#FD0000;}
	.st25{fill:#F50505;}
	.st26{fill:#EC1010;}
	.st27{fill:#DD1414;}
</style>
<g>
	<path class="st0" d="M588.87,448.27c-3.05,4.4-7.79,1.65-11.62,2.76c-13.4,2.33-26.9,0.92-40.36,0.93c-4.19,0-5.31-3.55-5.87-6.96
		c-1.67-10.2-2.78-20.47-3.9-30.74c-0.25-2.3-0.56-4.49-1.53-6.57c-0.41-14.74-4.1-29.2-3.85-44c0.01-0.36,0.19-0.62,0.58-0.77
		c-0.05-0.01-0.11-0.02-0.68-0.14c0.18,11.23-1.84,22.18-3.03,33.21c-1.65,15.38-3.72,30.71-5.44,46.08
		c-0.26,2.3-0.57,4.56-2.47,6.2c-3.06,4.36-7.8,1.67-11.64,2.76c-11.18,2.22-22.47,1.01-33.7,0.94c-4.78-0.03-6.21-2.75-5.51-8.73
		c1.63-13.98,3.33-27.96,5.06-41.93c5.57-45.05,11.11-90.1,16.59-135.16c0.32-2.6,0.26-5.34,2.59-7.22
		c3.12-4.31,7.84-1.94,11.78-2.81c1.78-0.97,3.72-0.88,5.66-0.88c10.36,0,20.72-0.02,31.08,0.01c6.48,0.02,8.13,1.36,8.98,7.64
		c2.68,19.82,5.08,39.67,7.57,59.51c0.72,5.74,1.45,11.48,2.05,16.47c0.92-10.65,2.63-21.98,3.7-33.38
		c0.63-2.04,0.84-4.13,0.82-6.25c1.64-11.4,2.64-22.87,4.09-34.28c0.29-2.25,0.22-4.6,2.46-6.03c3.09-4.34,7.81-1.9,11.73-2.8
		c5.15-1.74,10.46-0.66,15.69-0.83c5.62-0.18,11.25-0.09,16.88-0.03c5.61,0.06,7.45,1.97,6.87,7.9c-0.91,9.26-2.24,18.48-3.39,27.72
		c-6.18,49.85-12.31,99.71-18.59,149.55C591.11,443.22,591.07,446.1,588.87,448.27z"/>
	<path class="st0" d="M879.28,448.24c-3.07,4.26-7.76,1.78-11.6,2.79c-11.52,2.26-23.15,1.02-34.73,0.91
		c-4.51-0.04-6.13-2.86-5.5-8.34c1.04-9.08,2.25-18.15,3.37-27.23c1.37-11,2.85-21.98,4.04-32.99c0.24-2.2,1.59-5.06-2.02-6.11
		c-9.38-0.12-9.48-0.13-10.65,9.01c-2.3,18.06-4.51,36.14-6.76,54.21c-0.35,2.77-0.38,5.64-2.6,7.78
		c-3.09,4.26-7.79,1.75-11.64,2.78c-11.5,2.26-23.12,0.99-34.68,0.92c-4.35-0.03-5.76-2.54-5.21-7.93
		c1.38-13.45,3.3-26.84,4.92-40.27c5.44-45.15,11.04-90.28,16.56-135.42c0.4-3.25,0.2-6.74,2.77-9.38
		c3.13-4.25,7.82-1.98,11.78-2.82c1.75-1.09,3.72-0.87,5.64-0.87c8.43-0.02,16.85-0.02,25.28,0c8.05,0.02,9.66,1.85,8.71,9.73
		c-2.36,19.67-4.92,39.32-7.02,59.03c-0.21,1.96-1.32,4.73,1.66,5.25c2.56,0.45,5.84,2.26,7.74-1.54c2.74-1.93,3.17-4.89,3.53-7.86
		c2.15-17.88,4.5-35.74,6.66-53.63c0.31-2.57,0.41-5.28,2.43-7.3c3.11-4.32,7.82-1.91,11.75-2.8c1.78-1,3.74-0.87,5.67-0.87
		c8.62-0.01,17.25-0.02,25.87,0c7.53,0.02,8.9,1.54,8.11,9.23c-1.37,13.29-3.13,26.55-4.76,39.81
		c-5.54,45.03-11.05,90.05-16.54,135.09C881.68,442.49,881.75,445.77,879.28,448.24z"/>
	<path class="st0" d="M1075.8,258.94c3.1-4.37,7.83-1.9,11.76-2.81c2.13-1.12,4.45-0.87,6.73-0.87c15.66-0.01,31.32-0.01,46.98-0.01
		c24.88,0,41.86,13.16,47.26,37.42c4.73,21.28,0.76,41.18-11.24,59.44c-2.73,4.16-6.38,7.5-9.96,10.87
		c-2.97,2.79-3.99,5.79-3.36,9.88c3.42,22.24,6.78,44.49,10.15,66.73c0.44,2.92,1.28,5.91-0.62,8.68
		c-2.87,4.58-7.59,1.52-11.28,2.74c-4.74,1.86-9.7,1.07-14.58,1.15c-6.49,0.1-12.98,0.15-19.46-0.02c-5.23-0.14-7.4-1.95-8.12-7.08
		c-1.02-7.28-2.11-14.56-2.27-21.93c-0.01-2.16-0.95-4.18-1.02-6.34c-1.3-11.46-2.42-22.94-4.04-34.74
		c-2.57,20.64-4.94,40.89-7.68,61.1c-0.26,1.91-0.4,3.88-2.23,5.1c-2.98,4.5-7.73,1.62-11.52,2.78c-11.5,2.3-23.1,1.03-34.65,0.87
		c-4.34-0.06-5.82-2.97-5.14-8.59c1.38-11.33,2.64-22.67,4.06-34c6.02-47.9,11.71-95.85,17.67-143.76
		C1073.54,263.13,1073.42,260.55,1075.8,258.94z"/>
	<path class="st0" d="M365.27,238.39c-7.26,2.17-14.57,4.13-22.08,5.25c-9.77,1.75-19.63,0.88-29.45,1.01
		c-9.15,0.12-18.3,0.06-27.45,0.01c-6.27-0.03-8.13-1.87-7.48-8.4c0.96-9.62,2.15-19.22,3.34-28.81c6.03-48.5,11.98-97,17.88-145.52
		c0.43-3.52-0.17-7.54,3.13-10.27c3.01-4.37,7.72-1.68,11.51-2.77c2.87-0.99,5.84-1.1,8.84-1.1c13.54,0.01,27.08-0.15,40.62,0.05
		c15.18,0.22,28.54,4.91,39.3,16.22c9.24,9.71,13.32,21.63,12.11,34.27c-2.96,30.94-6.87,61.79-11.27,92.57
		c-2.32,16.21-10.54,29.2-23.06,39.63C376.51,234.48,370.96,236.55,365.27,238.39z"/>
	<path class="st0" d="M796.88,241.42c-6.12,1.44-12.24,2.87-18.35,4.31c-20.47,3.24-38.22-1.31-50.98-18.69
		c-8.58-11.68-10.47-25.3-8.84-39.26c4.98-42.62,10.5-85.18,15.68-127.78c0.35-2.87,0.12-6.07,2.69-8.28
		c3.05-4.26,7.73-1.8,11.58-2.81c11.53-2.21,23.16-1.03,34.74-0.86c4.37,0.06,5.77,2.71,5.23,7.96
		c-1.18,11.55-2.73,23.06-4.15,34.58c-4.04,32.82-7.83,65.68-11.98,98.48c-0.07,0.52-0.14,1.05-0.16,1.58
		c-0.09,3.1,0.17,6.21,3.44,7.64c3.22,1.41,5.28-0.74,7.09-3.06c2.88-7.33,2.77-15.16,3.75-22.79
		c4.85-37.82,9.28-75.69,14.08-113.51c0.33-2.61,0.35-5.31,2.54-7.26c3.06-4.31,7.78-1.69,11.62-2.76
		c11.35-2.13,22.79-1.01,34.19-0.84c4.2,0.06,5.84,2.5,5.56,7.33c-0.55,9.83-2.18,19.56-3.4,29.32
		c-4.23,33.65-8.08,67.35-12.58,100.96c-1.81,13.48-6.38,25.84-14.56,36.86C817.07,231.93,807.99,238.07,796.88,241.42z"/>
	<path class="st0" d="M394.9,448.57c-6.13,1.59-12.19,3.49-18.52,4.26c-10.51,1.57-20.86,1.95-31.11-2.03
		c-19.71-7.64-31.14-23.71-31.65-44.92c-0.29-12.04,2.04-23.81,3.45-35.66c2.28-19.02,4.62-38.04,7.18-57.03
		c2.25-16.72,8.52-31.5,21.08-43.2c4.15-3.87,8.76-7.06,14.22-8.84c1.44-0.93,3.23-0.97,4.72-1.8c6.78-2.89,14.08-3.68,21.2-5.19
		c15.64-2.83,30.11-0.03,43.06,9.33c11.12,8.03,16.46,19.39,17.98,32.74c1.34,11.83-0.6,23.49-2.05,35.16
		c-2.84,22.86-4.68,45.86-8.74,68.53c-3.58,20-13.8,35.93-32.39,45.63C400.65,446.95,397.68,447.48,394.9,448.57z"/>
	<path class="st0" d="M1257.24,259.38c6.92-2.69,14.24-3.7,21.45-5.19c18.78-2.97,35.58,0.59,49.28,14.73
		c8.71,8.99,12.12,20.08,12.55,32.15c0.5,14.29-2.52,28.32-4.11,42.45c-2,17.81-4,35.62-6.57,53.35
		c-2.44,16.81-10.01,30.94-22.98,42.11c-5.31,4.57-11.37,7.56-18.01,9.52c-6.34,1.52-12.55,3.59-19.06,4.35
		c-16.31,2.9-31.55,0.67-44.9-9.76c-10.56-8.25-15.98-19.29-17.22-32.59c-1.33-14.18,1.51-28.01,3.17-41.94
		c2.35-19.72,4.5-39.47,7.53-59.09c2.65-17.15,10.4-31.59,24.2-42.5c3.05-2.41,6.17-4.68,9.95-5.81
		C1253.96,260.23,1255.73,260.17,1257.24,259.38z"/>
	<path class="st0" d="M936.79,134.09c3.21-0.15,6.42-0.31,9.63-0.46c2.96-1.39,6.14-1.33,9.3-1.33c10.2,0.01,20.41-0.11,30.61,0.05
		c6.22,0.1,8.39,2.04,7.69,7.94c-2.44,20.58-3.21,41.49-8.74,61.51c-5.12,18.57-16.82,32.17-35.62,38.72
		c-6.91,2.18-13.83,4.32-21.05,5.24c-15.94,2.79-30.92,0.45-44.13-9.26c-14.45-10.61-19.39-25.9-17.75-42.82
		c3.02-31.14,7.06-62.19,11.4-93.17c2.47-17.64,10.69-32.17,25.49-42.72c3.6-2.57,8.31-2.88,11.44-6.18
		c7.38-1.51,14.77-3.01,22.15-4.52c12.95-2.31,25.48-1.4,37.3,4.87c19.63,10.41,26.64,29.4,24.25,50.63
		c-0.45,4.03,0.38,8.59-2.99,11.97c-3.06,4.28-7.75,1.72-11.58,2.75c-4.75,1.82-9.71,1.03-14.58,1.14
		c-4.56,0.1-9.12,0.02-13.68,0.02c-12.21-0.01-12.87-0.71-11.18-13.1c0.49-3.59,0.51-6.98-1.54-10.12
		c-4.96-2.74-8.93-1.2-10.94,4.36c-1.69,4.67-1.78,9.64-2.41,14.5c-3.03,23.28-5.58,46.63-8.64,69.91
		c-0.34,2.61-0.44,5.25-0.32,7.88c0.12,2.66,0.35,5.45,3.24,6.68c3.17,1.35,5.34-0.47,7.23-2.74c4.1-5.19,3.59-11.59,4.49-17.58
		c0.44-2.93-2.61-2.77-4.34-3.72c-1.95-1.36-2.58-3.33-2.33-5.55c1.12-9.78,2.04-19.59,3.68-29.3
		C933.27,137.33,933.64,134.65,936.79,134.09z"/>
	<path class="st0" d="M558.74,109.53c-2.97,4.8-7.93,2.18-11.91,3.21c-2.97,1.54-6.19,0.92-9.31,0.97
		c-8.23,0.12-16.47-0.09-24.7,0.11c-2.82-0.26-4.52-1.8-5.19-4.52c0.03-3.24,1.12-6.4,0.92-9.66c-0.12-1.87-0.29-3.79-2.02-5.05
		c-3.97-2.63-6.65-0.74-8.73,2.63c-2.85,4.62-2.18,11.17,1.91,15.64c4.38,4.79,8.97,9.4,13.93,13.63
		c8.82,7.51,17.98,14.63,25.61,23.46c14.73,17.06,15.67,36.16,8.18,56.33c-4.64,12.49-12.17,22.87-23.78,29.99
		c-3.8,2.33-7.86,3.82-12.03,5.17c-6.13,1.43-12.26,2.85-18.4,4.28c-18.28,2.66-34.98-0.14-48.68-13.76
		c-9.27-9.21-12.34-20.67-11.78-33.21c0.23-5.13-0.52-10.65,2.95-15.24c3.02-4.4,7.85-1.93,11.73-3.07
		c11.34-1.32,22.71-0.51,34.07-0.51c3.41,0,5.03,1.97,5.18,5.31c0.1,2.27,0.02,4.55,0.13,6.82c0.12,2.47,0.2,5.07,2.88,6.29
		c2.69,1.22,4.68-0.4,6.56-2.04c3.28-4.03,2.73-8.04-0.08-12.03c-1.64-2.2-3.65-4.04-5.72-5.82c-9.3-7.26-18.21-14.98-26.91-22.91
		c-29.6-26.97-27.04-73.83,5.09-97.63c4.18-3.1,9.06-4.56,13.77-6.46c5.95-2.03,12.1-3.2,18.26-4.34c3.38-0.69,6.8-1.05,10.25-0.99
		c33.84-1.17,56.56,24.18,49.82,59.93C560.47,107.44,560.33,108.92,558.74,109.53z"/>
	<path class="st0" d="M1039.06,298.46c-3.12,4.58-8.22,1.69-12.15,3.23c-3.15,1.59-6.55,1.03-9.86,1.06
		c-7.91,0.07-15.83-0.01-23.73,0.04c-10.41,1.46-10.45,1.46-11.69,11.82c-0.4,3.31-0.85,6.61-1.23,9.93
		c-0.4,3.56,1.04,5.2,4.71,5.19c6.15-0.03,12.3-0.15,18.44,0.08c5.52,0.2,7.52,1.99,7.28,7.42c-0.49,10.87-2.16,21.64-3.69,32.4
		c-0.2,1.4-0.83,2.68-1.95,3.64c-3.09,4.17-7.74,1.8-11.59,2.76c-3.52,1.39-7.2,1.21-10.88,1.09c-8.84,0.52-8.81,0.53-9.88,9.27
		c-0.51,4.18-1.09,8.35-1.55,12.53c-0.52,4.73,0.21,5.63,5.04,5.69c13.17,0.18,26.33,0.05,39.5,0.08c1.93,0,3.86-0.07,5.78,0.24
		c3.01,0.49,5.11,2.29,4.92,5.25c-0.83,12.4-1.79,24.8-4.73,36.93c-0.12,0.52-0.67,0.79-1.09,1.1c-3.02,4.37-7.74,1.72-11.55,2.8
		c-3.07,0.88-6.19,1.18-9.38,1.17c-26.05-0.03-52.09,0-78.14-0.02c-8.98-0.01-10.49-1.8-9.42-10.71
		c7.05-58.66,14.34-117.28,21.51-175.92c0.3-2.42,0.21-5,2.59-6.61c3.09-4.39,7.83-1.89,11.76-2.81c1.97-0.99,4.1-0.88,6.21-0.88
		c27.45,0,54.89-0.01,82.34,0.01c7.2,0.01,8.88,1.61,8.25,8.73c-0.86,9.8-2.26,19.55-3.39,29.33
		C1041.25,295.3,1040.55,297.07,1039.06,298.46z"/>
	<path class="st0" d="M748.81,298.42c-2.99,4.71-8,1.78-11.88,3.15c-2.38,1.41-5.02,1.18-7.62,1.19c-8.9,0.03-17.81-0.03-26.71,0.03
		c-9.75,1.39-9.7,1.4-11.11,11.46c-0.49,3.48-0.73,6.99-1.32,10.46c-0.58,3.38,0.81,4.95,4.22,4.98c6.15,0.06,12.31-0.05,18.46,0.08
		c6.87,0.14,8.82,2.35,7.99,9.18c-1.17,9.59-2.21,19.19-3.51,28.76c-0.28,2.07-0.37,4.26-2.43,5.57c-2.97,4.4-7.67,1.65-11.43,2.76
		c-3.29,1.37-6.74,1.16-10.18,1.11c-10.48,0.26-9.14-0.36-10.55,9.29c-0.56,3.81-1.05,7.64-1.42,11.48c-0.6,6.2-0.18,6.7,5.98,6.75
		c12.63,0.11,25.27,0.03,37.9,0.05c1.75,0,3.52-0.09,5.26,0.15c4.65,0.64,6.52,2.75,6.1,7.45c-0.95,10.48-2.56,20.88-3.77,31.33
		c-0.21,1.78-0.84,3.4-2.25,4.62c-3.08,4.3-7.8,1.69-11.65,2.76c-3.26,0.78-6.55,1.18-9.91,1.18c-25.68-0.04-51.37-0.01-77.05-0.03
		c-9.84,0-11.05-1.22-9.83-11.16c5.43-44.31,10.83-88.62,16.27-132.93c1.65-13.43,3.35-26.85,4.98-40.29
		c0.37-3.08,0.25-6.39,2.7-8.87c3.14-4.24,7.83-1.98,11.79-2.81c1.77-1.04,3.74-0.87,5.66-0.87c27.64-0.01,55.27-0.02,82.91,0.01
		c7.18,0.01,9.26,2.25,8.44,9.25c-1.09,9.26-2.19,18.52-3.52,27.74C750.99,294.51,750.85,296.85,748.81,298.42z"/>
	<path class="st0" d="M74.31,259.06c7.15-1.62,14.31-3.24,21.46-4.86c18.46-2.81,35.38,0.1,48.89,14.08
		c7.55,7.81,11.65,17.33,12.42,28.29c0.34,4.91,0.6,9.76-0.09,14.65c-0.27,1.92-0.25,3.9-2.25,5.02c-3.2,3.77-7.76,1.79-11.63,2.74
		c-11.73,2.84-23.67,1.46-35.53,1.66c-3.99,0.07-4.03-3.1-4.3-5.94c-0.41-4.24,1.28-8.81-1.95-12.61
		c-5.49-2.09-8.97-0.41-10.55,5.54c-1.95,7.33-2.35,14.93-3.22,22.43c-2.55,22-5.57,43.94-7.93,65.96c-0.07,0.7-0.18,1.4-0.25,2.09
		c-0.34,3.2,0.29,6.1,3.36,7.68c3.19,1.65,5.76,0.26,7.88-2.25c3.08-4.08,1.97-9.57,4.65-13.77c3.05-4.45,7.73-1.88,11.62-2.71
		c2.95-1.58,6.17-1.43,9.31-1.22c7.9,0.52,15.78,1.06,23.7,1.14c5.44,0.05,7.69,2.58,7.01,7.57c-2.7,19.7-11.06,36.16-27.69,47.86
		c-4.25,2.99-9.03,4.67-13.92,6.17c-6.09,1.64-12.13,3.5-18.42,4.27c-15.31,2.67-29.8,1-42.59-8.54
		c-14.56-10.87-20.34-26.29-18.81-43.55c2.77-31.3,6.68-62.53,11.55-93.59c3.15-20.1,13.62-35.92,32.12-45.7
		C70.84,260.57,72.95,260.61,74.31,259.06z"/>
	<path class="st0" d="M597.58,51.71c3.03-4.29,7.72-1.78,11.55-2.81c11.52-2.25,23.14-1.02,34.71-0.89c4.5,0.05,5.93,2.79,5.26,8.44
		c-1.37,11.52-2.69,23.05-4.13,34.56c-4.1,32.97-8.05,65.96-12.06,98.94c-0.72,5.93-0.36,6.21,5.46,6.69
		c13.7,1.12,27.42,0.27,41.14,0.52c8.39,0.15,10.36,2.28,9.44,10.53c-1.03,9.26-2.3,18.49-3.44,27.74
		c-0.26,2.11-0.45,4.23-2.43,5.59c-3.07,4.41-7.81,1.84-11.71,2.79c-2.15,1.05-4.46,0.87-6.74,0.87c-27.46,0-54.92,0.01-82.38,0
		c-8.02,0-9.61-1.54-8.71-9.78c2.33-21.33,5.19-42.6,7.74-63.9c4.4-36.84,9.17-73.64,13.47-110.5
		C595.11,57.43,594.91,54.08,597.58,51.71z"/>
	<path class="st0" d="M279.4,448.27c-3.01,4.4-7.72,1.64-11.51,2.75c-2.65,1.2-5.46,1.17-8.29,1.17c-26.23-0.01-52.47,0-78.7-0.01
		c-10.2,0-12.15-2-10.87-12.23c2.93-23.39,5.7-46.79,8.6-70.19c4.16-33.51,8.18-67.04,12.38-100.55c0.44-3.55-0.02-7.5,3.09-10.3
		c3.07-4.44,7.82-1.81,11.72-2.78c6.41-1.78,12.95-0.57,19.42-0.84c4.22-0.18,8.45-0.08,12.67-0.02c6.22,0.09,8.29,2.52,7.53,9.11
		c-1.37,11.88-2.85,23.74-4.32,35.61c-4.04,32.45-7.86,64.93-11.91,97.38c-0.83,6.7-0.32,7.21,6.51,7.28
		c13.73,0.14,27.45-0.01,41.18,0.08c7.7,0.05,9.29,1.9,8.39,9.65c-1.08,9.25-1.98,18.53-3.34,27.75
		C281.6,444.4,281.37,446.68,279.4,448.27z"/>
	<path class="st0" d="M1035.84,51.69c3.1-4.18,7.76-1.83,11.63-2.79c11.34-2.21,22.79-1.07,34.19-0.87c4.6,0.08,6.27,2.88,5.68,8.22
		c-1.83,16.6-3.93,33.17-5.99,49.74c-5.19,41.87-10.21,83.76-15.46,125.62c-0.41,3.25-0.2,6.75-2.77,9.38
		c-3.12,4.39-7.88,1.88-11.83,2.8c-4.07,1.72-8.34,0.72-12.51,0.83c-6.5,0.18-13.01,0.09-19.52,0.03c-6.41-0.05-8.22-1.99-7.6-8.33
		c1.64-16.79,4.07-33.49,6.07-50.24c5.04-42.22,10.37-84.4,15.46-126.61C1033.53,56.7,1033.58,53.82,1035.84,51.69z"/>
	<path class="st1" d="M194.1,258.91c-2.99,23.85-6.01,47.7-8.97,71.56c-3.75,30.31-7.47,60.62-11.18,90.93
		c-0.94,7.67-1.65,15.36-2.75,23c-0.71,4.91,0.99,6.49,5.96,6.46c29.02-0.18,58.04-0.09,87.05-0.08c1.22,0,2.45,0.15,3.67,0.23
		c-1.02,2.58-3.3,2.25-5.38,2.25c-32.39,0.01-64.77-0.04-97.16,0.07c-4.83,0.02-6.03-1.96-5.47-6.46
		c5.92-47.25,11.74-94.51,17.58-141.77c1.44-11.68,2.86-23.37,4.3-35.06C183.13,258.97,183.14,258.97,194.1,258.91z"/>
	<path class="st1" d="M936.31,258.94c-2.4,19.16-4.83,38.32-7.2,57.48c-3.77,30.5-7.51,61-11.26,91.5
		c-1.5,12.2-2.9,24.41-4.56,36.59c-0.69,5.06,1.34,6.37,6.13,6.35c27.8-0.16,55.6-0.08,83.41-0.07c2.1,0,4.21,0.16,6.31,0.24
		c-1.63,2.47-4.21,2.24-6.65,2.24c-31.48,0.02-62.97,0.03-94.45,0c-5.82-0.01-6.37-0.76-5.68-6.43
		c6.85-56.3,13.69-112.6,20.54-168.9c0.47-3.83,0.95-7.67,1.53-11.49c1.08-7.07,1.59-7.48,8.71-7.52
		C934.2,258.92,935.26,258.93,936.31,258.94z"/>
	<path class="st1" d="M646.03,258.94c-4.19,33.96-8.4,67.93-12.57,101.89c-3.46,28.22-6.82,56.45-10.34,84.66
		c-0.64,5.16,2.36,5.31,6.07,5.3c27.79-0.04,55.57-0.03,83.36-0.01c2.1,0,4.21,0.16,6.31,0.24c-1.41,2.42-3.83,2.23-6.08,2.23
		c-31.68,0.03-63.36-0.05-95.04,0.09c-5.18,0.02-6.24-2.16-5.66-6.79c3.37-26.67,6.57-53.37,9.86-80.05
		c4.04-32.79,8.15-65.56,12.16-98.35C635.24,258.9,635.14,258.89,646.03,258.94z"/>
	<path class="st2" d="M279.4,448.27c1.61-12.36,3.23-24.73,4.82-37.09c0.53-4.1-1.79-5.13-5.4-5.12c-15.67,0.07-31.33-0.1-47,0.12
		c-4.23,0.06-5.24-0.85-4.68-5.3c5.77-45.86,11.25-91.75,16.85-137.63c0.71-5.86-0.1-6.91-5.97-6.95
		c-10.73-0.07-21.47-0.12-32.2-0.18c1.21-2.38,3.45-2.09,5.54-2.09c12.68-0.02,25.36,0.13,38.04-0.08c4.66-0.08,6.3,1.43,5.7,6.18
		c-2.81,22.32-5.38,44.68-8.09,67.01c-2.92,24.08-5.84,48.16-8.94,72.22c-0.52,4.06,1.44,4.21,4.47,4.2
		c15.32-0.08,30.64-0.07,45.96-0.02c6.61,0.02,7.22,0.66,6.49,7.46c-1.05,9.79-2.23,19.56-3.55,29.32c-1.03,7.61-1.69,8.05-9.4,8.03
		C281.16,448.34,280.28,448.3,279.4,448.27z"/>
	<path class="st2" d="M1173.49,448.27c-2.7-18.76-5.38-37.53-8.12-56.28c-1.09-7.47-2.17-14.94-3.58-22.36
		c-0.57-3.02,0.94-4.41,2.85-6.13c22.52-20.28,28.63-45.63,21.37-74.18c-5.21-20.46-21.41-32.42-42.53-32.87
		c-18.63-0.4-37.28-0.23-55.92-0.32c1.16-2.45,3.44-2.08,5.5-2.09c20.05-0.01,40.11-0.23,60.16,0.09
		c26.94,0.43,45.21,18.74,46.52,45.79c0.96,19.85-3.42,37.98-16.21,53.62c-1,1.22-1.94,2.67-3.24,3.44
		c-6.95,4.1-7.6,9.74-6.25,17.32c3.8,21.42,6.67,43.01,9.93,64.53c1.38,9.08,0.98,9.56-8.37,9.5
		C1174.9,448.34,1174.2,448.3,1173.49,448.27z"/>
	<path class="st2" d="M683.08,241.02c1.6-12.36,3.21-24.71,4.79-37.07c0.58-4.56-2.31-5.25-5.89-5.24
		c-15.13,0.02-30.26-0.19-45.38,0.12c-4.97,0.1-6.46-0.71-5.75-6.21c5.11-39.71,9.81-79.47,14.64-119.21
		c0.76-6.28,1.5-12.55,2.32-18.82c0.49-3.81-0.98-5.49-4.94-5.47c-11.25,0.04-22.5-0.12-33.75-0.19c1.63-2.45,4.21-2.3,6.64-2.31
		c12.32-0.04,24.64,0.07,36.96-0.06c4.68-0.05,6.68,1.37,6.03,6.5c-3.21,25.27-6.15,50.57-9.22,75.86
		c-2.56,21.1-5.12,42.2-7.81,63.29c-0.44,3.41,0.72,4.18,3.93,4.15c15.31-0.14,30.62-0.07,45.94-0.06c7.34,0.01,7.86,0.48,7.04,7.91
		c-1.06,9.6-2.23,19.2-3.55,28.77c-1.06,7.65-1.58,7.97-9.35,8.13C684.84,241.1,683.96,241.04,683.08,241.02z"/>
	<path class="st3" d="M597.58,51.71c-6.72,54.42-13.44,108.84-20.14,163.27c-0.92,7.5-1.51,15.05-2.62,22.52
		c-0.72,4.83,1.09,6.22,5.7,6.2c28.18-0.12,56.36-0.07,84.54-0.05c2.11,0,4.22,0.11,6.33,0.17c-0.84,2.47-2.94,2.11-4.84,2.11
		c-32.53,0.01-65.06-0.07-97.59,0.09c-5.01,0.02-5.94-2.05-5.39-6.42c3.65-29.09,7.15-58.2,10.74-87.29
		c3.72-30.14,7.52-60.27,11.21-90.42C586.78,51.39,586.7,51.35,597.58,51.71z"/>
	<path class="st2" d="M365.27,238.39c12.41-5.98,22.95-14.08,30.09-26.13c6.37-10.74,7.87-22.75,9.33-34.79
		c3-24.75,6.19-49.48,8.92-74.26c3.34-30.35-15.91-52.59-46.73-53.77c-16.33-0.63-32.71-0.23-49.06-0.31
		c-1.05-0.01-2.09-0.14-3.14-0.22c1.37-2.45,3.81-2.32,6.04-2.3c19.87,0.17,39.75-0.63,59.6,0.6c22.71,1.41,40.29,16.24,44.23,37.56
		c1.65,8.93,0.25,17.87-0.85,26.76c-3.04,24.56-6.04,49.13-9.25,73.67c-3.47,26.55-18.65,43.52-43.55,52.31
		C369.09,238.16,367.26,238.88,365.27,238.39z"/>
	<path class="st3" d="M737.07,51.71c-5.61,45.3-11.45,90.58-16.73,135.92c-2.13,18.29,1.65,35.06,16.79,47.52
		c8.8,7.24,19.25,9.88,30.33,10.55c3.68,0.22,7.38,0.03,11.07,0.03c-26.12,7.17-58.8-0.05-67.64-31.2
		c-3.66-12.87-1.68-25.8-0.08-38.7c4.07-32.94,8.14-65.88,12.23-98.81c0.63-5.05,1.32-10.1,1.94-15.15
		C726.25,51.36,726.24,51.36,737.07,51.71z"/>
	<path class="st3" d="M303.16,51.68c-2.34,18.46-4.73,36.91-7.02,55.37c-3.8,30.67-7.56,61.34-11.31,92.01
		c-1.56,12.72-2.98,25.46-4.65,38.17c-0.64,4.87,1.04,6.54,6.01,6.49c19-0.22,38-0.08,56.99-0.07c-3.74,1.73-7.75,2.1-11.78,2.12
		c-19.01,0.09-38.02,0.02-57.03,0.22c-4.83,0.05-5.98-1.71-5.4-6.36c5.3-42.2,10.41-84.41,15.57-126.63
		c2.18-17.79,4.31-35.59,6.53-53.38C292.06,51.79,292.68,51.44,303.16,51.68z"/>
	<path class="st3" d="M1075.8,258.94c-2.4,19.18-4.82,38.35-7.19,57.53c-3.77,30.52-7.52,61.05-11.27,91.57
		c-1.5,12.21-2.92,24.43-4.54,36.63c-0.62,4.67,1.08,6.26,5.77,6.19c10.91-0.17,21.82,0.08,32.73,0.16c-1.4,2.43-3.8,2.24-6.07,2.25
		c-12.67,0.03-25.35-0.06-38.02,0.05c-4.58,0.04-6.06-1.45-5.45-6.33c7.37-59.29,14.52-118.6,21.74-177.91
		C1064.74,258.89,1064.76,258.9,1075.8,258.94z"/>
	<path class="st2" d="M1063.12,241c5.59-45.34,11.19-90.69,16.76-136.03c2.06-16.74,3.97-33.51,6.1-50.24
		c0.55-4.33-1.24-5.65-5.27-5.63c-11.08,0.04-22.16-0.12-33.24-0.2c1.6-2.5,4.21-2.29,6.63-2.3c12.31-0.05,24.63-0.07,36.94,0
		c5.89,0.03,6.69,0.92,5.96,6.96c-3.22,26.67-6.52,53.33-9.79,79.99c-3.74,30.5-7.49,60.99-11.24,91.49
		c-0.24,1.92-0.56,3.82-0.81,5.74C1073.78,241.27,1073.78,241.27,1063.12,241z"/>
	<path class="st3" d="M785.55,258.95c-4.54,36.8-9.11,73.6-13.62,110.41c-3.1,25.29-6.07,50.6-9.25,75.89
		c-0.56,4.42,1.25,5.59,5.25,5.58c11.09-0.04,22.18,0.13,33.26,0.21c-1.59,2.56-4.19,2.23-6.61,2.23c-12.31,0.03-24.63,0.05-36.94,0
		c-6.08-0.02-6.71-0.68-5.97-6.82c3.53-29.29,7.11-58.57,10.72-87.85c3.7-29.98,7.46-59.94,11.17-89.92
		C774.78,258.88,774.74,258.88,785.55,258.95z"/>
	<path class="st3" d="M484.09,258.94c-3.86,31.39-7.71,62.78-11.58,94.17c-3.72,30.17-7.42,60.34-11.2,90.5
		c-0.78,6.25-0.18,7.12,6.07,7.17c10.56,0.09,21.12,0.17,31.67,0.26c-1.41,2.41-3.8,2.23-6.07,2.23
		c-12.49,0.02-24.98-0.1-37.47,0.07c-4.78,0.06-5.97-1.77-5.38-6.4c4.3-33.97,8.4-67.97,12.54-101.97
		c2.99-24.58,6.03-49.16,8.9-73.75C473,258.92,472.86,258.9,484.09,258.94z"/>
	<path class="st2" d="M394.9,448.57c19.08-8.4,32.21-22.13,37.99-42.43c2.47-8.66,3.17-17.61,4.23-26.5
		c2.8-23.55,6.03-47.07,8.15-70.69c2.86-31.76-16.8-53.39-48.72-54.65c-3.69-0.15-7.38-0.1-11.08-0.14
		c24.39-6.62,52.39-0.64,64.61,20.23c6.52,11.14,7.73,23.3,6.32,35.7c-3.18,27.91-6.27,55.85-10.36,83.63
		c-4.01,27.22-19.07,45.87-45.99,54C398.4,448.22,396.62,448.3,394.9,448.57z"/>
	<path class="st3" d="M1253.56,261.37c-22.01,11.97-32.16,31.27-34.93,55.45c-2.8,24.4-6.11,48.74-9.11,73.12
		c-1.23,9.97-1.57,19.96,1.26,29.77c5.46,18.91,22.62,31.88,43.71,32.94c5.09,0.26,10.19,0.14,15.29,0.19
		c-16.48,4.68-32.8,4.24-48.12-3.61c-15.76-8.07-23.1-22.07-24.07-39.39c-0.83-14.83,2.47-29.36,4.2-43.99
		c2.22-18.83,4.23-37.71,7.49-56.37c3.97-22.72,17.25-38.69,38.55-47.81c1.43-0.61,3.01-0.84,4.52-1.25
		C1253.42,259.9,1253.6,260.5,1253.56,261.37z"/>
	<path class="st2" d="M1288.84,448.49c16.02-7.45,28.33-18.58,35.13-35.23c4.24-10.39,5.19-21.45,6.54-32.41
		c2.77-22.48,5.56-44.96,8.07-67.47c1.88-16.86-0.42-32.69-13.35-45.23c-9.56-9.28-21.43-13.05-34.43-13.81
		c-4.03-0.24-8.08-0.12-12.12-0.16c25.58-6.83,54.56-0.45,66.22,22.91c6.09,12.21,5.98,25.11,4.42,38.15
		c-2.99,24.95-6.35,49.86-9.08,74.84c-3.13,28.65-20.91,50.76-47.27,57.82C1291.64,448.26,1290.22,448.3,1288.84,448.49z"/>
	<path class="st3" d="M915.06,51.6c0.13,2.25-1.91,2.26-3.17,2.92c-18.87,9.91-29.55,25.68-32.34,46.52
		c-3.98,29.76-7.45,59.58-11.01,89.39c-3.8,31.76,15.08,53.7,47.41,55.18c4.21,0.19,8.44,0.1,12.66,0.14
		c-18.58,4.5-36.69,4.21-53.13-6.79c-14.59-9.77-19.65-24.5-18.34-41.27c1.34-17.16,3.73-34.23,5.77-51.33
		c1.71-14.31,3.27-28.64,5.47-42.88c4.03-26.15,18.99-43.11,44.23-51.03C913.43,52.2,914.24,51.89,915.06,51.6z"/>
	<path class="st3" d="M74.31,259.06c0,1.41-1.27,1.56-2.12,2.01c-21.36,11.09-31.99,29.3-34.86,52.58
		c-3.47,28.06-6.82,56.13-10.16,84.2c-3.7,31.05,17.36,54.84,48.65,55.04c3.69,0.02,7.39-0.02,11.08-0.04
		c-14.79,4.36-29.55,4.24-43.75-1.84c-17.16-7.34-25.66-21.15-27.1-39.44c-1.1-13.97,1.94-27.65,3.48-41.41
		c2.1-18.84,4.72-37.63,7.08-56.45C30.01,286.39,49.13,264.47,74.31,259.06z"/>
	<path class="st3" d="M360.45,261.3c-21.06,11.09-31.76,29.11-34.74,52.18c-3.46,26.84-6.83,53.69-10.12,80.55
		c-1.28,10.44-0.73,20.82,3.49,30.58c7.91,18.29,23.02,26.22,42,28.01c5.06,0.48,10.2,0.16,15.31,0.21
		c-19.73,5.08-38.79,4.49-55.53-8.52c-13.48-10.47-18.13-25.41-16.63-41.75c2.16-23.59,5.48-47.07,8.36-70.59
		c1.57-12.87,2.29-25.96,7.95-37.94c7.98-16.87,20.58-28.56,38.8-33.72C360.33,259.92,360.6,260.38,360.45,261.3z"/>
	<path class="st2" d="M879.28,448.24c6.3-51.08,12.6-102.17,18.88-153.25c1.35-10.98,2.56-21.99,3.99-32.96
		c0.55-4.22-1.12-5.77-5.21-5.75c-11.08,0.04-22.16-0.08-33.24-0.14c1.32-2.67,3.83-2.07,6.03-2.08
		c12.49-0.05,24.97-0.04,37.46-0.01c6.04,0.02,6.69,0.66,5.95,6.82c-3.23,26.84-6.55,53.67-9.85,80.5
		c-3.73,30.32-7.46,60.63-11.2,90.95c-0.24,1.92-0.5,3.83-0.78,5.74C889.82,448.58,889.82,448.58,879.28,448.24z"/>
	<path class="st2" d="M588.87,448.27c7.67-61.57,15.35-123.14,23.01-184.71c0.79-6.36-0.06-7.22-6.74-7.25
		c-10.38-0.05-20.77-0.12-31.15-0.17c1.03-2.2,3.06-2.08,4.99-2.09c13.03-0.02,26.06,0.05,39.09-0.05c4.09-0.03,5.64,1.37,5.09,5.71
		c-7.61,60.51-15.09,121.04-22.62,181.56C599.69,448.21,599.16,448.51,588.87,448.27z"/>
	<path class="st3" d="M1035.84,51.69c-6.63,53.69-13.26,107.37-19.88,161.06c-1.03,8.37-1.94,16.75-3.07,25.1
		c-0.56,4.15,0.98,5.83,5.15,5.81c11.08-0.05,22.17,0.08,33.25,0.14c-1.21,2.35-3.42,2.11-5.52,2.11
		c-12.84,0.01-25.67-0.12-38.51,0.07c-4.43,0.07-5.97-1.41-5.4-5.89c2.79-21.94,5.38-43.91,8.06-65.86
		c4.05-33.11,8.11-66.21,12.17-99.31c0.62-5.05,1.3-10.1,1.93-15.15c0.95-7.63,1.57-8.2,9.17-8.17
		C1034.08,51.61,1034.96,51.66,1035.84,51.69z"/>
	<path class="st2" d="M796.88,241.42c17.78-7.93,30.01-20.97,36.45-39.39c3.69-10.56,4.46-21.65,5.85-32.62
		c4.56-36.11,8.93-72.24,13.53-108.34c1.52-11.96,1.73-11.9-10.41-11.94c-9.15-0.03-18.3-0.15-27.45-0.23
		c1.36-2.49,3.85-2.26,6.06-2.28c12.68-0.08,25.36,0.03,38.04-0.08c4.66-0.04,6.2,1.92,5.62,6.49
		c-4.52,35.39-8.89,70.8-13.39,106.19c-1.68,13.23-2.04,26.71-6.51,39.44C836.59,221.61,821.28,236.63,796.88,241.42z"/>
	<path class="st2" d="M784,196.38c-2.04,3.59-4.93,5.64-9.09,4.03c-4.53-1.75-4.65-5.83-4.19-9.77c2.16-18.32,4.43-36.63,6.67-54.94
		c3.31-27.03,6.62-54.06,9.94-81.08c0.46-3.77-0.93-5.54-4.92-5.52c-11.25,0.04-22.51-0.12-33.76-0.2c1.15-1.92,3.1-2.25,5.03-2.26
		c13.32-0.05,26.64-0.02,39.96-0.05c3.45-0.01,5.28,1.46,4.92,5.08c2.22,4.87,0.29,9.76-0.29,14.5
		c-4.71,38.67-9.25,77.36-14.07,116.02C783.62,186.92,783.67,191.65,784,196.38z"/>
	<path class="st2" d="M511.61,241.46c11.4-5.47,21.83-12.23,28.5-23.35c13.61-22.69,16.65-50.98-7.14-72.91
		c-10.87-10.02-22.64-19.02-32.89-29.72c-4.17-4.35-6.32-9.25-5.2-15.3c1.4-7.58,6.74-10.3,12.64-6.48
		c0.25,5.02-0.67,10.1,0.81,15.05c0.16,2.02,1.63,3.04,3.09,4.08c1.02,0.47,2.3,0.69,2.19,2.26c8.02,8.91,17.94,15.72,26.61,23.94
		c4.6,4.36,9.05,8.79,12.89,13.88c14.14,18.75,8.94,47.15-2.3,63.46C541.28,230.16,528.22,238.63,511.61,241.46z"/>
	<path class="st3" d="M482.39,51.48c-13.77,6.46-24.87,15.78-31.58,29.69c-13.02,26.97-6.97,55.48,15.89,75.36
		c8.21,7.14,16.4,14.31,24.6,21.46c-4.61,2.73-9.22,2.66-13.83-0.01c-8.35-7.24-16.81-14.35-25.03-21.74
		c-32.14-28.88-21.82-80.87,12.69-98.91C470.55,54.5,476.14,51.98,482.39,51.48z"/>
	<path class="st4" d="M949.66,240.51c14.95-7.5,26.46-18.27,32.7-34.12c3.26-8.27,4.24-16.98,5.29-25.69
		c1.64-13.6,3.24-27.2,5.11-40.77c0.66-4.82-1.18-6.23-5.74-6.19c-13.54,0.12-27.08-0.05-40.62-0.11c1.24-2.54,3.63-2.53,5.91-2.54
		c15.29-0.04,30.58-0.02,45.87,0c3.48,0,6.57,0.6,5.9,5.22c-2.96,20.3-3.64,40.97-8.54,60.93c-5.49,22.35-20.76,35.96-42.27,42.98
		C952.16,240.57,950.87,240.42,949.66,240.51z"/>
	<path class="st2" d="M91.9,404.27c-2.13,3.81-5.46,4.82-9.38,3.54c-4.28-1.4-5.23-5.1-4.78-8.94c3.12-26.45,6.39-52.88,9.64-79.31
		c0.51-4.17,0.86-8.4,1.81-12.48c1.59-6.82,7-9.46,12.78-6.6c-0.18,6.61-1.49,13.09-2.41,19.62c-0.12,0.88-0.65,1.6-1.58,1.89
		c-2.65,22.52-5.31,45.04-7.96,67.57C91.25,394.39,89.48,399.59,91.9,404.27z"/>
	<path class="st2" d="M932.86,196.58c-1.55,3.62-4.56,4.87-8.1,4.25c-3.92-0.69-5.25-3.85-5.43-7.44
		c-0.42-8.3,1.41-16.41,2.39-24.59c2.67-22.31,5.54-44.6,8.29-66.9c0.43-3.5,1.92-6.41,4.78-8.42c2.9-2.04,5.99-3.12,8.97,0
		c-2.11,8.72-1.41,17.97-5.02,26.4c-0.65,4.73-1.29,9.47-1.94,14.2c-3.29,3.09-2.71,7.38-3.27,11.23
		c-1.11,7.57-1.76,15.21-2.76,22.8c-0.29,2.17-0.43,4.14,1.24,5.82c1.06,1.58,0.93,3.38,0.67,5.07
		C931.73,184.89,931.5,190.73,932.86,196.58z"/>
	<path class="st5" d="M1020.7,448.23c1.47-11.48,2.96-22.96,4.39-34.44c0.86-6.9,0.15-7.69-6.66-7.69
		c-14.93-0.01-29.86-0.12-44.78,0.08c-3.81,0.05-4.91-1.11-4.35-4.79c0.99-6.59,1.95-13.2,2.38-19.84c0.31-4.77,2.32-6.49,6.88-5.75
		c1.54,0.25,3.12,0.25,4.68,0.37c0.31,0.7,0.29,1.39-0.04,2.08c-0.86,6.97-1.41,13.99-2.68,20.88c-0.71,3.86,0.56,4.47,3.92,4.45
		c14.42-0.11,28.84-0.05,43.26-0.05c9.2,0.01,9.26,0.02,8.24,8.99c-0.95,8.37-2.04,16.72-3.09,25.08
		C1031.45,448.62,1031.44,448.61,1020.7,448.23z"/>
	<path class="st5" d="M730.52,448.27c1.5-12.03,2.88-24.08,4.58-36.08c0.63-4.45-0.83-6.16-5.27-6.14
		c-15.32,0.1-30.63-0.09-45.95,0.12c-4.28,0.06-5.48-0.91-4.6-5.35c1.26-6.36,2.05-12.87,2.32-19.35c0.19-4.66,1.89-6.36,6.39-5.69
		c1.73,0.26,3.51,0.19,5.26,0.27c1.02,0.74,0.96,1.5,0.04,2.28c-1.01,7.26-1.95,14.54-3.04,21.79c-0.55,3.69,1.83,3.41,4.18,3.41
		c14.74-0.01,29.48-0.02,44.23,0c7.66,0.01,8.32,0.75,7.43,8.08c-1.06,8.69-2.09,17.39-3.22,26.08
		C741.46,448.53,741.43,448.52,730.52,448.27z"/>
	<path class="st2" d="M556.63,304.48c-1.6,13.75-3.19,27.49-4.79,41.24c-0.4,0.03-0.8,0.05-1.2,0.08c-0.99-7.3-2.03-14.6-2.95-21.91
		c-2.58-20.53-5.15-41.07-7.64-61.61c-0.5-4.15-2.23-6.12-6.78-6.05c-12.47,0.19-24.94-0.03-37.41-0.09c1.32-2.62,3.8-2.07,6-2.08
		c13.46-0.04,26.93,0.25,40.38-0.15c5.65-0.16,9.04,1.17,9.34,7.24c1.67,1.14,1.69,2.97,1.88,4.67c1.23,11.04,3.77,21.97,3.1,33.19
		C556.59,300.82,556.49,302.65,556.63,304.48z"/>
	<path class="st2" d="M840.39,328.55c0.67,0.71,2.4-0.3,2.4,1.29c0,1-1.03,1.25-1.95,1.26c-0.35,0-0.7-0.01-1.05,0.01
		c-12.15,0.83-12.36,0.81-11.03-11.19c2.09-18.82,4.45-37.61,6.78-56.41c0.77-6.23,0.09-7.17-6.08-7.21
		c-10.71-0.06-21.42-0.12-32.13-0.18c1.2-2.34,3.41-2.09,5.49-2.09c12.93-0.01,25.86,0.09,38.79-0.07c3.73-0.05,5.68,1.11,5.44,5.01
		c1.59,2.24,0.92,4.69,0.65,7.11C845.32,286.92,842.28,307.67,840.39,328.55z"/>
	<path class="st2" d="M995.78,114.55c1.73-10.79,3.11-21.59,0.59-32.46c-4.58-19.72-22.18-33.57-44.38-34.81
		c-4.91-0.27-9.85-0.15-14.77-0.21c20.38-6.32,49.74-2.62,63.4,17.14c8.73,12.62,9.05,26.57,7.38,40.97
		c-0.1,0.87-0.47,1.73-0.46,2.59c0.03,5.52-2.82,7.54-8.07,6.87C998.25,114.49,997.01,114.58,995.78,114.55z"/>
	<path class="st4" d="M1005.18,373.27c1.43-11.69,2.95-23.36,4.24-35.06c0.75-6.76,0.3-7.09-6.71-7.1
		c-6.69-0.01-13.38-0.12-20.07,0.05c-3.27,0.08-4.83-0.39-4.15-4.34c1.14-6.57,1.92-13.23,2.33-19.89c0.28-4.43,1.81-6.5,6.41-5.74
		c1.72,0.28,3.49,0.27,5.23,0.4c0.64,0.66,0.67,1.34,0.07,2.04c-1.03,7.3-2.02,14.6-3.11,21.89c-0.45,3.02,1.45,3.03,3.52,3.03
		c7.57,0,15.13,0.06,22.7,0.01c4.41-0.03,5.85,2,5.24,6.3c-1.36,9.56-2.81,19.13-3.58,28.75
		C1016.42,374.75,1013.2,373.55,1005.18,373.27z"/>
	<path class="st4" d="M714.9,373.28c1.59-12.32,3.18-24.64,4.77-36.96c0.46-3.53-0.97-5.26-4.65-5.23
		c-7.54,0.07-15.08-0.13-22.62,0.08c-3.47,0.1-4.72-0.85-4.15-4.47c1.07-6.74,2.12-13.51,2.57-20.31c0.3-4.4,2.1-5.81,6.2-5.2
		c1.72,0.26,3.47,0.27,5.21,0.39c0.37,0.68,0.43,1.36-0.02,2.03c-0.85,6.8-1.45,13.64-2.65,20.38c-0.73,4.1,0.83,4.72,4.36,4.61
		c6.86-0.21,13.73,0.05,20.6-0.1c4.61-0.1,6.84,1.26,6.09,6.46c-1.44,10.09-2.36,20.25-3.6,30.37
		C726.06,373.08,725.27,373.55,714.9,373.28z"/>
	<path class="st2" d="M154.75,316.25c6.23-32.38-9.43-59.42-46.33-61.89c-4.2-0.28-8.43-0.11-12.65-0.15
		c17.69-4.49,35.02-3.99,50.92,5.67c13.11,7.97,19.28,20.58,20.38,35.68c0.29,4.02,0.16,8.1-0.06,12.13
		c-0.39,6.99-1.7,8.21-8.56,8.53C157.21,316.27,155.98,316.24,154.75,316.25z"/>
	<path class="st3" d="M435.7,183.53c-1.07,8.87-2.65,17.74-0.93,26.7c3.51,18.32,18.29,31.45,38.47,34.53
		c6.65,1.02,13.31,0.85,19.98,0.98c-17.86,4.38-35.35,4.14-51.32-6.03c-16.08-10.23-20.67-25.82-18.6-43.97
		c0.08-0.7,0.29-1.38,0.39-2.07C425.21,183.23,425.21,183.23,435.7,183.53z"/>
	<path class="st2" d="M558.74,109.53c1.37-8.53,2.36-17.06,0.72-25.7c-3.61-19.02-17.21-32.39-36.35-35.47
		c-3.81-0.61-7.67-0.94-11.51-1.4c-0.62-0.64-2.5,0.21-2.01-1.72c16.75-2.19,32.71-0.67,46.38,10.51
		c12.04,9.85,15.85,23.17,15.5,38.09c-0.07,2.98-0.64,5.95-0.83,8.93c-0.33,5.22-2.85,7.68-8.21,6.92
		C561.22,109.52,559.97,109.58,558.74,109.53z"/>
	<path class="st6" d="M812.84,448.25c2.8-22.27,5.77-44.52,8.26-66.82c0.51-4.59,1.95-6.31,6.41-5.65c1.73,0.25,3.5,0.18,5.25,0.26
		c1.57,1.43,1.03,3.26,0.83,4.96c-2.35,20.26-4.82,40.51-7.61,60.72c-0.86,6.22-3.33,8.02-8.44,6.85
		C815.97,448.46,814.4,448.36,812.84,448.25z"/>
	<path class="st6" d="M510.69,448.27c3.49-28.85,6.99-57.7,10.48-86.55c2.3,15.21,5.85,30.15,5.46,45.5
		c1.39,3.22,0.58,6.56,0.24,9.78c-0.85,8.12-1.53,16.28-2.94,24.34c-0.38,2.19-0.47,4.59-2.92,5.76
		C517.74,448.95,514.17,448.26,510.69,448.27z"/>
	<path class="st4" d="M105.31,448.58c15.82-7.1,27.95-17.93,34.82-34.15c2.76-6.52,4.19-13.35,5.47-20.26
		c0.78-4.21-0.86-5.81-4.96-5.92c-11.25-0.3-22.49-0.78-33.74-1.19c1.05-2.22,2.96-2.84,5.21-2.77c13.18,0.4,26.36,0.84,39.54,1.23
		c3.99,0.12,5.44,1.84,5.08,6.02c-2.26,26.42-20.71,48.98-46.25,56.29C108.77,448.32,107.1,448.75,105.31,448.58z"/>
	<path class="st2" d="M1039.06,298.46c1.45-11.85,2.94-23.69,4.32-35.54c0.69-5.9-0.04-6.61-6.18-6.61
		c-27.78-0.01-55.56,0-83.34-0.01c-1.93,0-3.86-0.11-5.79-0.17c1.17-2.45,3.43-2.09,5.5-2.09c31.83-0.02,63.66-0.03,95.48,0
		c5.55,0,6.33,0.96,5.62,6.65c-1.24,9.93-2.52,19.85-3.84,29.76c-1.05,7.88-1.36,8.12-9.14,8.09
		C1040.81,298.54,1039.93,298.49,1039.06,298.46z"/>
	<path class="st2" d="M748.81,298.42c1.58-12.19,3.15-24.38,4.75-36.57c0.62-4.72-2.01-5.6-6.01-5.59
		c-27.97,0.08-55.95,0.04-83.93,0.03c-1.93,0-3.86-0.11-5.79-0.17c1.21-2.38,3.45-2.09,5.53-2.09c31.86-0.01,63.73,0.04,95.59-0.06
		c4.61-0.02,6.33,1.38,5.57,6.24c-1.4,9.02-2.41,18.11-3.36,27.2C759.97,298.65,759.87,298.83,748.81,298.42z"/>
	<path class="st7" d="M784,196.38c-2.69-2.5-2.29-5.74-1.92-8.85c2.98-25.27,6.01-50.53,9.07-75.78
		c2.43-20.03,4.94-40.05,7.41-60.07c1.56-0.01,3.11-0.01,4.66-0.01c-4.21,34.1-8.42,68.19-12.63,102.29
		c-1.46,11.83-2.84,23.67-4.41,35.49C785.87,191.82,785.62,194.35,784,196.38z"/>
	<path class="st6" d="M1102.82,448.24c2.69-21.05,5.37-42.09,8.06-63.14c0.36-2.83,0.8-5.66,1.2-8.49c0.57,0.01,1.13,0.02,1.7,0.03
		c1.45,13.26,2.89,26.51,4.34,39.77c-0.78,1.73-0.18,3.43,0.08,5.15c-0.18,6.67-1.06,13.27-2.06,19.84
		c-0.48,3.17-0.86,6.92-5.51,7.07C1108.02,448.4,1105.42,448.32,1102.82,448.24z"/>
	<path class="st8" d="M817.54,448.57c4.78-0.05,6.54-2.58,7.08-7.23c2.54-21.79,5.4-43.54,8.14-65.3c3.61-0.94,4.77,0.49,4.31,4.06
		c-2.68,20.83-5.21,41.67-7.93,62.49c-0.98,7.45-0.54,8.14,7,8.18c10.51,0.06,21.03,0.16,31.54,0.25c-1.44,2.31-3.8,2.25-6.07,2.25
		c-12.8,0.03-25.6,0.02-38.4,0.01C820.03,453.28,816.98,453.08,817.54,448.57z"/>
	<path class="st9" d="M521.01,447.1c2.9-9.43,2.62-19.33,4.27-28.95c0.62-3.61,0.91-7.28,1.35-10.93c3.17,4.41,2,9.71,2.87,14.57
		c1.33,7.39,2.3,14.87,2.82,22.36c0.39,5.6,3.03,6.83,8.16,6.73c12.25-0.24,24.51,0.07,36.76,0.15c-1.69,2.85-4.54,2.24-7.08,2.25
		c-13.88,0.06-27.76-0.18-41.63,0.14C523.63,453.52,521.26,451.89,521.01,447.1z"/>
	<path class="st10" d="M477.47,177.99c4.61,0,9.22,0.01,13.83,0.01c2.27,1.48,4.16,3.34,5.59,5.65c1.12,4.13,0.29,8.43,1.13,12.59
		c-1.78,3.46-4.47,5.42-8.43,4.35c-4.32-1.16-4.57-4.8-4.53-8.45c0.15-11.3,0.15-11.25-11.35-11.31
		c-8.76-0.05-17.53-0.24-26.29-0.36c1.42-2.26,3.64-2.32,5.99-2.33C461.43,178.13,469.45,178.04,477.47,177.99z"/>
	<path class="st11" d="M840.39,328.55c-2.95-0.64-1.4-2.79-1.23-4.21c2.57-21.79,5.24-43.57,7.88-65.35
		c1.64-0.02,3.27-0.04,4.9-0.05c-2.77,22.02-5.58,44.03-8.23,66.06C843.44,327.34,842.75,328.52,840.39,328.55z"/>
	<path class="st12" d="M1110.62,448.48c3.46-1.47,3.84-4.63,4.24-7.75c0.85-6.54,1.65-13.09,2.47-19.63
		c0.87-0.38,1.3,0.07,1.57,0.82c0.88,7.63,1.86,15.24,2.59,22.88c0.4,4.21,2.12,6.11,6.65,6.04c11.35-0.17,22.71,0.08,34.07,0.17
		c-0.95,2.17-2.84,2.31-4.84,2.31c-13.82-0.01-27.65-0.07-41.47,0.04C1112.37,453.38,1110.67,451.95,1110.62,448.48z"/>
	<path class="st13" d="M938.73,119.89c1.33-8.87,0.28-18.19,5.02-26.4c5.09,4.69,2.6,10.45,2.08,15.83c-0.74,7.6-0.8,7.68,6.79,7.73
		c10.53,0.07,21.05,0.17,31.58,0.26c-1.51,2.97-4.29,2.6-6.91,2.61C964.44,119.91,951.58,119.89,938.73,119.89z"/>
	<path class="st11" d="M556.18,299.55c-1.53-12.8-3.07-25.61-4.6-38.41c2.98-3.55,7.06-1.77,10.68-2.21
		c-1.74,13.61-3.47,27.22-5.21,40.84C556.67,300.1,556.38,300.03,556.18,299.55z"/>
	<path class="st14" d="M97.98,322c1.3-7.17,0.4-14.76,3.99-21.51c3.96,2.36,3.32,6.17,3.03,9.83c-0.89,11.29-0.67,9.51,8.63,9.37
		c9.83-0.15,19.66-0.46,29.48-0.7c-0.71,1.39-2.02,2.04-3.42,2.11C125.8,321.73,111.91,322.53,97.98,322z"/>
	<path class="st15" d="M91.9,404.27c-5.08-4.33-2.75-9.61-1.87-14.7c1.75,0.07,3.5,0.14,5.26,0.21
		C94.88,394.77,95.14,399.93,91.9,404.27z"/>
	<path class="st1" d="M702.21,303.62c0.01-0.68,0.01-1.35,0.02-2.03c11.57-0.45,23.13-0.43,34.7-0.02
		c-1.45,2.32-3.81,2.07-6.04,2.07C721.33,303.66,711.77,303.63,702.21,303.62z"/>
	<path class="st3" d="M513.61,115.08c-0.95-0.54-1.84-1.14-2.19-2.26c11.8-0.55,23.61-0.38,35.41-0.09
		c-1.22,2.74-3.71,2.19-5.91,2.21C531.82,115.03,522.71,115.04,513.61,115.08z"/>
	<path class="st3" d="M992.54,303.63c-0.02-0.68-0.05-1.36-0.07-2.04c11.48-0.4,22.96-0.57,34.44,0.1c-1.54,2.24-3.9,1.95-6.14,1.96
		C1011.36,303.65,1001.95,303.64,992.54,303.63z"/>
	<path class="st16" d="M693.3,378.33c-0.01-0.76-0.03-1.52-0.04-2.28c3.4-0.01,6.81-0.01,10.21-0.02
		C700.82,380.09,696.7,377.62,693.3,378.33z"/>
	<path class="st17" d="M983.19,378.24c0.01-0.69,0.03-1.38,0.04-2.08c3.45-0.61,6.9-0.52,10.36-0.12
		C990.83,380.09,986.7,377.68,983.19,378.24z"/>
	<path class="st18" d="M509.59,45.25c0.67,0.57,1.34,1.15,2.02,1.72c-3.65,0.06-7.3,0.12-10.96,0.18
		C503.45,45.66,506.48,45.27,509.59,45.25z"/>
	<path class="st19" d="M360.45,261.3c-0.37-0.33-0.75-0.66-1.12-0.99c1.51-1.04,3.15-1.39,4.94-0.96
		C362.99,260,361.72,260.65,360.45,261.3z"/>
	<path class="st20" d="M1253.56,261.37c-0.4-0.32-0.81-0.63-1.21-0.95c1.46-1.14,3.12-1.34,4.88-1.04
		C1256.01,260.04,1254.79,260.71,1253.56,261.37z"/>
	<path class="st21" d="M556.18,299.55c0.28,0.1,0.58,0.17,0.87,0.21c-0.14,1.57-0.28,3.15-0.43,4.71
		C556.48,302.83,556.33,301.19,556.18,299.55z"/>
	<path class="st5" d="M1129.35,333.63c-0.98,1.41-2.53,1.82-4.06,2.23c-7.46,2.01-8.85,0.76-7.77-6.77
		c0.98-6.78,1.91-13.57,2.73-20.38c1-8.35,3.41-9.59,11.71-5.81c1.61,4.19,0.1,8.3-0.33,12.42
		C1130.99,321.45,1130.23,327.55,1129.35,333.63z"/>
	<path class="st22" d="M1129.35,333.63c-1.14-0.52-1.38-1.42-1.22-2.59c1.29-9.38,2.56-18.76,3.83-28.14
		c5.99,3.08,5.65,8.64,5.45,14.08C1137.18,323.7,1135.3,329.66,1129.35,333.63z"/>
	<path class="st23" d="M1118.9,421.92c-0.52-0.27-1.05-0.55-1.57-0.82c-0.17-1.63-0.2-3.24,0.78-4.68
		C1118.38,418.25,1118.64,420.08,1118.9,421.92z"/>
	<path class="st2" d="M347.03,195.26c-0.8,0.66-1.5,1.49-2.41,1.94c-2.56,1.28-5.71,2.35-7.99,0.8c-1.74-1.19-0.42-4.26-0.16-6.44
		c3.76-31.19,7.61-62.37,11.44-93.56c0.21-1.69-0.03-3.98,2.38-4.02c3.17-0.05,6.85-0.89,8.66,3.1c1.33,2.28,1.04,4.74,0.74,7.19
		c-3.36,27.16-6.73,54.31-9.95,81.49C349.34,189.12,348.57,192.27,347.03,195.26z"/>
	<path class="st11" d="M347.03,195.26c3.97-32.72,7.95-65.45,11.92-98.18c5.14,3.04,3.74,8.01,3.34,12.42
		c-0.7,7.85-1.85,15.66-2.8,23.48c-2.06,16.87-4.07,33.74-6.21,50.6C352.7,188.2,351.08,192.42,347.03,195.26z"/>
	<path class="st2" d="M380.74,404.4c-2.49,3.74-5.9,4.87-9.98,3.08c-4.73-2.08-5.13-6.42-4.69-10.73c0.88-8.72,2.07-17.41,3.15-26.1
		c2.37-19.14,4.74-38.28,7.11-57.41c0.41-3.31,0.96-6.57,2.79-9.48c3-4.77,6.56-5.86,12.07-3.65c-3.87,17.7-4.99,35.78-7.39,53.68
		c-1.68,12.53-3.01,25.11-4.67,37.65C378.54,395.92,379.67,400.14,380.74,404.4z"/>
	<path class="st24" d="M380.74,404.4c-4.26-3.14-3.71-7.68-3.2-12c2.17-18.67,4.48-37.32,6.77-55.97
		c1.18-9.59,2.46-19.16,3.62-28.75c0.35-2.88,1.27-5.44,3.26-7.58c4.02,2.9,4.05,7.26,3.57,11.39
		c-3.22,27.64-6.58,55.27-10.03,82.88C384.28,397.96,383.7,401.71,380.74,404.4z"/>
	<path class="st2" d="M1274.37,404.45c-2.47,3.27-5.6,4.7-9.63,3.27c-4.45-1.58-5.52-5.33-5.12-9.36c1.13-11.35,2.53-22.67,3.89-34
		c1.94-16.2,3.93-32.4,5.9-48.6c0.47-3.83,0.86-7.69,2.7-11.18c2.77-5.23,6.34-6.6,12.21-4.73c-0.67,7.47-2.43,14.77-3.3,22.22
		c-2.79,23.89-5.64,47.77-8.69,71.62C1271.85,397.55,1273.51,400.9,1274.37,404.45z"/>
	<path class="st24" d="M1274.37,404.45c-3.71-2.54-4.12-6.42-3.66-10.27c3.37-28.35,6.88-56.69,10.34-85.03
		c0.41-3.34,1.57-6.42,3.28-9.3c5.31,3.97,4.23,9.58,3.63,14.93c-1.17,10.47-2.53,20.92-3.83,31.37
		c-2.04,16.38-4.09,32.76-6.16,49.13C1277.55,398.62,1276.64,401.81,1274.37,404.45z"/>
	<path class="st25" d="M932.86,196.58c-2.64-2.56-2.92-5.88-2.61-9.2c0.42-4.49,1.15-8.96,1.75-13.43c5.23-0.76,6.41,1.79,5.2,6.33
		C935.75,185.7,936.88,191.82,932.86,196.58z"/>
	<path class="st26" d="M508.33,108.75c-3.82-4.83-3-9.9-0.81-15.05C511.87,98.5,509.94,103.63,508.33,108.75z"/>
	<path class="st27" d="M498.02,196.23c-3.15-3.95-1.92-8.29-1.13-12.59C500.62,187.54,500.84,191.75,498.02,196.23z"/>
</g>
</svg>
